<svg width="24" height="24" viewBox="0 0 24 24" fill="none" xmlns="http://www.w3.org/2000/svg">
<path d="M8.26227 1.96191C8.81492 1.73204 9.19048 1.72364 9.43024 1.77148C9.60963 1.80736 9.73818 1.87937 9.82574 1.94922L9.89996 2.01758L9.9068 2.02344C9.99153 2.10819 10.0994 2.25508 10.1441 2.48438C10.1831 2.68427 10.1805 2.98223 10.0269 3.40234L9.95172 3.58984V3.59082C9.46425 4.71412 9.21984 5.91267 9.23004 7.1416V7.14258C9.25139 11.8454 13.1476 15.8168 17.897 16.0088V16.0098C18.415 16.0337 18.9253 16.0096 19.4234 15.9473L19.9175 15.8721H19.9195C20.5024 15.7661 20.8652 15.8388 21.0845 15.9355C21.3033 16.0321 21.4222 16.171 21.4849 16.2725C21.5497 16.3773 21.6229 16.5481 21.6138 16.7881C21.6058 16.9982 21.5332 17.2987 21.2789 17.6895L21.1578 17.8623L21.1568 17.8652C19.1324 20.6345 15.9124 22.25 12.4595 22.25L11.9791 22.2412L11.9722 22.2402L11.4732 22.2061C6.51055 21.7461 2.4115 17.79 1.82574 12.9336L1.77887 12.4443C1.45452 7.94166 4.05819 3.73034 8.26227 1.96191ZM9.17047 2.25C9.04297 2.25 8.88309 2.27181 8.68121 2.33789L8.46637 2.41895C4.58617 4.04842 2.13285 7.87032 2.25153 12.0039L2.27106 12.4043V12.4053C2.6295 17.4235 6.89892 21.5163 11.9859 21.7383V21.7393C15.4436 21.9074 18.7235 20.3306 20.7427 17.5752L20.7437 17.5762L20.7466 17.5703C20.9189 17.3291 21.0111 17.141 21.0582 17.0156L21.2838 16.4141L20.6451 16.3428C20.5461 16.3318 20.4017 16.3233 20.2056 16.3457L20.0025 16.3779C19.4826 16.4705 18.9454 16.5202 18.4078 16.5273L17.8697 16.5205L17.4019 16.4902C12.6007 16.0568 8.74937 11.9523 8.72028 7.16016C8.72028 5.84876 8.97633 4.58966 9.49567 3.40723C9.62409 3.1247 9.65309 2.92021 9.66656 2.8125L9.73688 2.25H9.17047Z" stroke="#090D1F"/>
</svg>
